<svg width="142" height="135" viewBox="0 0 142 135" fill="none" xmlns="http://www.w3.org/2000/svg">
<path d="M24.6139 27.8233C26.0144 27.8233 27.1498 26.688 27.1498 25.2875C27.1498 23.887 26.0144 22.7517 24.6139 22.7517C23.2134 22.7517 22.0781 23.887 22.0781 25.2875C22.0781 26.688 23.2134 27.8233 24.6139 27.8233Z" fill="#F39200"/>
<path d="M32.5495 23.2738C33.95 23.2738 35.0853 22.1385 35.0853 20.738C35.0853 19.3375 33.95 18.2021 32.5495 18.2021C31.149 18.2021 30.0137 19.3375 30.0137 20.738C30.0137 22.1385 31.149 23.2738 32.5495 23.2738Z" fill="#F39200"/>
<path d="M40.485 18.7223C41.8855 18.7223 43.0209 17.5869 43.0209 16.1865C43.0209 14.786 41.8855 13.6506 40.485 13.6506C39.0845 13.6506 37.9492 14.786 37.9492 16.1865C37.9492 17.5869 39.0845 18.7223 40.485 18.7223Z" fill="#F39200"/>
<path d="M48.4206 14.1727C49.8211 14.1727 50.9564 13.0374 50.9564 11.6369C50.9564 10.2364 49.8211 9.10107 48.4206 9.10107C47.0201 9.10107 45.8848 10.2364 45.8848 11.6369C45.8848 13.0374 47.0201 14.1727 48.4206 14.1727Z" fill="#F39200"/>
<path d="M56.3561 9.62217C57.7566 9.62217 58.8919 8.48685 58.8919 7.08636C58.8919 5.68586 57.7566 4.55054 56.3561 4.55054C54.9556 4.55054 53.8203 5.68586 53.8203 7.08636C53.8203 8.48685 54.9556 9.62217 56.3561 9.62217Z" fill="#F39200"/>
<path d="M64.2917 5.07164C65.6922 5.07164 66.8275 3.93631 66.8275 2.53582C66.8275 1.13532 65.6922 0 64.2917 0C62.8912 0 61.7559 1.13532 61.7559 2.53582C61.7559 3.93631 62.8912 5.07164 64.2917 5.07164Z" fill="#F39200"/>
<path d="M48.4206 23.2794C49.8211 23.2794 50.9564 22.1441 50.9564 20.7436C50.9564 19.3431 49.8211 18.2078 48.4206 18.2078C47.0201 18.2078 45.8848 19.3431 45.8848 20.7436C45.8848 22.1441 47.0201 23.2794 48.4206 23.2794Z" fill="#F39200"/>
<path d="M40.4856 26.8105C41.3265 26.8105 42.0082 26.1287 42.0082 25.2878C42.0082 24.4469 41.3265 23.7651 40.4856 23.7651C39.6446 23.7651 38.9629 24.4469 38.9629 25.2878C38.9629 26.1287 39.6446 26.8105 40.4856 26.8105Z" fill="#F39200"/>
<path d="M56.3547 26.8105C57.1956 26.8105 57.8774 26.1287 57.8774 25.2878C57.8774 24.4469 57.1956 23.7651 56.3547 23.7651C55.5138 23.7651 54.832 24.4469 54.832 25.2878C54.832 26.1287 55.5138 26.8105 56.3547 26.8105Z" fill="#F39200"/>
<path d="M72.2199 26.8105C73.0609 26.8105 73.7426 26.1287 73.7426 25.2878C73.7426 24.4469 73.0609 23.7651 72.2199 23.7651C71.379 23.7651 70.6973 24.4469 70.6973 25.2878C70.6973 26.1287 71.379 26.8105 72.2199 26.8105Z" fill="#F39200"/>
<path d="M88.091 26.8105C88.932 26.8105 89.6137 26.1287 89.6137 25.2878C89.6137 24.4469 88.932 23.7651 88.091 23.7651C87.2501 23.7651 86.5684 24.4469 86.5684 25.2878C86.5684 26.1287 87.2501 26.8105 88.091 26.8105Z" fill="#F39200"/>
<path d="M88.091 45.0238C88.932 45.0238 89.6137 44.3421 89.6137 43.5012C89.6137 42.6602 88.932 41.9785 88.091 41.9785C87.2501 41.9785 86.5684 42.6602 86.5684 43.5012C86.5684 44.3421 87.2501 45.0238 88.091 45.0238Z" fill="#F39200"/>
<path d="M56.3547 81.433C57.1956 81.433 57.8774 80.7513 57.8774 79.9104C57.8774 79.0694 57.1956 78.3877 56.3547 78.3877C55.5138 78.3877 54.832 79.0694 54.832 79.9104C54.832 80.7513 55.5138 81.433 56.3547 81.433Z" fill="#F39200"/>
<path d="M72.2258 81.4272C73.0667 81.4272 73.7484 80.7454 73.7484 79.9045C73.7484 79.0636 73.0667 78.3818 72.2258 78.3818C71.3848 78.3818 70.7031 79.0636 70.7031 79.9045C70.7031 80.7454 71.3848 81.4272 72.2258 81.4272Z" fill="#F39200"/>
<path d="M88.0913 35.3611C88.625 35.3611 89.0576 34.9284 89.0576 34.3948C89.0576 33.8611 88.625 33.4285 88.0913 33.4285C87.5576 33.4285 87.125 33.8611 87.125 34.3948C87.125 34.9284 87.5576 35.3611 88.0913 35.3611Z" fill="#F39200"/>
<path d="M40.4839 35.3611C41.0176 35.3611 41.4502 34.9284 41.4502 34.3948C41.4502 33.8611 41.0176 33.4285 40.4839 33.4285C39.9502 33.4285 39.5176 33.8611 39.5176 34.3948C39.5176 34.9284 39.9502 35.3611 40.4839 35.3611Z" fill="#F39200"/>
<path d="M40.4856 45.0238C41.3265 45.0238 42.0082 44.3421 42.0082 43.5012C42.0082 42.6602 41.3265 41.9785 40.4856 41.9785C39.6446 41.9785 38.9629 42.6602 38.9629 43.5012C38.9629 44.3421 39.6446 45.0238 40.4856 45.0238Z" fill="#F39200"/>
<path d="M56.3561 18.7223C57.7566 18.7223 58.8919 17.5869 58.8919 16.1865C58.8919 14.786 57.7566 13.6506 56.3561 13.6506C54.9556 13.6506 53.8203 14.786 53.8203 16.1865C53.8203 17.5869 54.9556 18.7223 56.3561 18.7223Z" fill="#F39200"/>
<path d="M80.1569 23.2794C81.5574 23.2794 82.6927 22.1441 82.6927 20.7436C82.6927 19.3431 81.5574 18.2078 80.1569 18.2078C78.7564 18.2078 77.6211 19.3431 77.6211 20.7436C77.6211 22.1441 78.7564 23.2794 80.1569 23.2794Z" fill="#F39200"/>
<path d="M72.2272 18.7223C73.6277 18.7223 74.763 17.5869 74.763 16.1865C74.763 14.786 73.6277 13.6506 72.2272 13.6506C70.8267 13.6506 69.6914 14.786 69.6914 16.1865C69.6914 17.5869 70.8267 18.7223 72.2272 18.7223Z" fill="#F39200"/>
<path d="M64.2917 14.1727C65.6922 14.1727 66.8275 13.0374 66.8275 11.6369C66.8275 10.2364 65.6922 9.10107 64.2917 9.10107C62.8912 9.10107 61.7559 10.2364 61.7559 11.6369C61.7559 13.0374 62.8912 14.1727 64.2917 14.1727Z" fill="#F39200"/>
<path d="M64.2917 23.2794C65.6922 23.2794 66.8275 22.1441 66.8275 20.7436C66.8275 19.3431 65.6922 18.2078 64.2917 18.2078C62.8912 18.2078 61.7559 19.3431 61.7559 20.7436C61.7559 22.1441 62.8912 23.2794 64.2917 23.2794Z" fill="#F39200"/>
<path d="M72.2272 9.62217C73.6277 9.62217 74.763 8.48685 74.763 7.08636C74.763 5.68586 73.6277 4.55054 72.2272 4.55054C70.8267 4.55054 69.6914 5.68586 69.6914 7.08636C69.6914 8.48685 70.8267 9.62217 72.2272 9.62217Z" fill="#F39200"/>
<path d="M80.1569 14.1671C81.5574 14.1671 82.6927 13.0318 82.6927 11.6313C82.6927 10.2308 81.5574 9.09546 80.1569 9.09546C78.7564 9.09546 77.6211 10.2308 77.6211 11.6313C77.6211 13.0318 78.7564 14.1671 80.1569 14.1671Z" fill="#F39200"/>
<path d="M88.0905 18.7167C89.491 18.7167 90.6263 17.5813 90.6263 16.1808C90.6263 14.7803 89.491 13.645 88.0905 13.645C86.69 13.645 85.5547 14.7803 85.5547 16.1808C85.5547 17.5813 86.69 18.7167 88.0905 18.7167Z" fill="#F39200"/>
<path d="M96.0261 23.2679C97.4265 23.2679 98.5619 22.1326 98.5619 20.7321C98.5619 19.3316 97.4265 18.1963 96.0261 18.1963C94.6256 18.1963 93.4902 19.3316 93.4902 20.7321C93.4902 22.1326 94.6256 23.2679 96.0261 23.2679Z" fill="#F39200"/>
<path d="M103.962 27.8119C105.362 27.8119 106.497 26.6765 106.497 25.2761C106.497 23.8756 105.362 22.7402 103.962 22.7402C102.561 22.7402 101.426 23.8756 101.426 25.2761C101.426 26.6765 102.561 27.8119 103.962 27.8119Z" fill="#F39200"/>
<path d="M103.962 36.9186C105.362 36.9186 106.497 35.7832 106.497 34.3827C106.497 32.9822 105.362 31.8469 103.962 31.8469C102.561 31.8469 101.426 32.9822 101.426 34.3827C101.426 35.7832 102.561 36.9186 103.962 36.9186Z" fill="#F39200"/>
<path d="M103.962 46.0255C105.362 46.0255 106.497 44.8902 106.497 43.4897C106.497 42.0892 105.362 40.9539 103.962 40.9539C102.561 40.9539 101.426 42.0892 101.426 43.4897C101.426 44.8902 102.561 46.0255 103.962 46.0255Z" fill="#F39200"/>
<path d="M103.962 55.1266C105.362 55.1266 106.497 53.9912 106.497 52.5908C106.497 51.1903 105.362 50.0549 103.962 50.0549C102.561 50.0549 101.426 51.1903 101.426 52.5908C101.426 53.9912 102.561 55.1266 103.962 55.1266Z" fill="#F39200"/>
<path d="M103.962 64.2323C105.362 64.2323 106.497 63.097 106.497 61.6965C106.497 60.296 105.362 59.1606 103.962 59.1606C102.561 59.1606 101.426 60.296 101.426 61.6965C101.426 63.097 102.561 64.2323 103.962 64.2323Z" fill="#F39200"/>
<path d="M24.6139 36.931C26.0144 36.931 27.1498 35.7957 27.1498 34.3952C27.1498 32.9947 26.0144 31.8594 24.6139 31.8594C23.2134 31.8594 22.0781 32.9947 22.0781 34.3952C22.0781 35.7957 23.2134 36.931 24.6139 36.931Z" fill="#F39200"/>
<path d="M24.6139 46.0311C26.0144 46.0311 27.1498 44.8958 27.1498 43.4953C27.1498 42.0948 26.0144 40.9595 24.6139 40.9595C23.2134 40.9595 22.0781 42.0948 22.0781 43.4953C22.0781 44.8958 23.2134 46.0311 24.6139 46.0311Z" fill="#F39200"/>
<path d="M24.6139 55.1378C26.0144 55.1378 27.1498 54.0025 27.1498 52.602C27.1498 51.2015 26.0144 50.0662 24.6139 50.0662C23.2134 50.0662 22.0781 51.2015 22.0781 52.602C22.0781 54.0025 23.2134 55.1378 24.6139 55.1378Z" fill="#F39200"/>
<path d="M24.6139 64.2389C26.0144 64.2389 27.1498 63.1035 27.1498 61.7031C27.1498 60.3026 26.0144 59.1672 24.6139 59.1672C23.2134 59.1672 22.0781 60.3026 22.0781 61.7031C22.0781 63.1035 23.2134 64.2389 24.6139 64.2389Z" fill="#F39200"/>
<path d="M103.962 73.3334C105.362 73.3334 106.497 72.198 106.497 70.7975C106.497 69.397 105.362 68.2617 103.962 68.2617C102.561 68.2617 101.426 69.397 101.426 70.7975C101.426 72.198 102.561 73.3334 103.962 73.3334Z" fill="#F39200"/>
<path d="M80.1569 86.9906C81.5574 86.9906 82.6927 85.8553 82.6927 84.4548C82.6927 83.0543 81.5574 81.9189 80.1569 81.9189C78.7564 81.9189 77.6211 83.0543 77.6211 84.4548C77.6211 85.8553 78.7564 86.9906 80.1569 86.9906Z" fill="#F39200"/>
<path d="M72.2272 91.5411C73.6277 91.5411 74.763 90.4058 74.763 89.0053C74.763 87.6048 73.6277 86.4695 72.2272 86.4695C70.8267 86.4695 69.6914 87.6048 69.6914 89.0053C69.6914 90.4058 70.8267 91.5411 72.2272 91.5411Z" fill="#F39200"/>
<path d="M24.6139 73.3458C26.0144 73.3458 27.1498 72.2105 27.1498 70.81C27.1498 69.4095 26.0144 68.2742 24.6139 68.2742C23.2134 68.2742 22.0781 69.4095 22.0781 70.81C22.0781 72.2105 23.2134 73.3458 24.6139 73.3458Z" fill="#F39200"/>
<path d="M32.5495 77.8954C33.95 77.8954 35.0853 76.76 35.0853 75.3595C35.0853 73.9591 33.95 72.8237 32.5495 72.8237C31.149 72.8237 30.0137 73.9591 30.0137 75.3595C30.0137 76.76 31.149 77.8954 32.5495 77.8954Z" fill="#F39200"/>
<path d="M32.5495 68.7953C33.95 68.7953 35.0853 67.6599 35.0853 66.2595C35.0853 64.859 33.95 63.7236 32.5495 63.7236C31.149 63.7236 30.0137 64.859 30.0137 66.2595C30.0137 67.6599 31.149 68.7953 32.5495 68.7953Z" fill="#F39200"/>
<path d="M96.0261 77.8839C97.4265 77.8839 98.5619 76.7486 98.5619 75.3481C98.5619 73.9476 97.4265 72.8123 96.0261 72.8123C94.6256 72.8123 93.4902 73.9476 93.4902 75.3481C93.4902 76.7486 94.6256 77.8839 96.0261 77.8839Z" fill="#F39200"/>
<path d="M96.0261 68.7894C97.4265 68.7894 98.5619 67.6541 98.5619 66.2536C98.5619 64.8531 97.4265 63.7178 96.0261 63.7178C94.6256 63.7178 93.4902 64.8531 93.4902 66.2536C93.4902 67.6541 94.6256 68.7894 96.0261 68.7894Z" fill="#F39200"/>
<path d="M96.0261 59.6883C97.4265 59.6883 98.5619 58.553 98.5619 57.1525C98.5619 55.752 97.4265 54.6167 96.0261 54.6167C94.6256 54.6167 93.4902 55.752 93.4902 57.1525C93.4902 58.553 94.6256 59.6883 96.0261 59.6883Z" fill="#F39200"/>
<path d="M96.0261 50.5873C97.4265 50.5873 98.5619 49.4519 98.5619 48.0514C98.5619 46.651 97.4265 45.5156 96.0261 45.5156C94.6256 45.5156 93.4902 46.651 93.4902 48.0514C93.4902 49.4519 94.6256 50.5873 96.0261 50.5873Z" fill="#F39200"/>
<path d="M32.5495 59.6883C33.95 59.6883 35.0853 58.553 35.0853 57.1525C35.0853 55.752 33.95 54.6167 32.5495 54.6167C31.149 54.6167 30.0137 55.752 30.0137 57.1525C30.0137 58.553 31.149 59.6883 32.5495 59.6883Z" fill="#F39200"/>
<path d="M32.5495 50.5873C33.95 50.5873 35.0853 49.4519 35.0853 48.0514C35.0853 46.651 33.95 45.5156 32.5495 45.5156C31.149 45.5156 30.0137 46.651 30.0137 48.0514C30.0137 49.4519 31.149 50.5873 32.5495 50.5873Z" fill="#F39200"/>
<path d="M32.5498 31.6307C33.5848 31.6307 34.4239 30.7916 34.4239 29.7566C34.4239 28.7216 33.5848 27.8826 32.5498 27.8826C31.5148 27.8826 30.6758 28.7216 30.6758 29.7566C30.6758 30.7916 31.5148 31.6307 32.5498 31.6307Z" fill="#F39200"/>
<path d="M48.4209 49.9258C49.4559 49.9258 50.295 49.0868 50.295 48.0518C50.295 47.0168 49.4559 46.1777 48.4209 46.1777C47.3859 46.1777 46.5469 47.0168 46.5469 48.0518C46.5469 49.0868 47.3859 49.9258 48.4209 49.9258Z" fill="#F39200"/>
<path d="M80.1553 49.9258C81.1903 49.9258 82.0293 49.0868 82.0293 48.0518C82.0293 47.0168 81.1903 46.1777 80.1553 46.1777C79.1203 46.1777 78.2812 47.0168 78.2812 48.0518C78.2812 49.0868 79.1203 49.9258 80.1553 49.9258Z" fill="#F39200"/>
<path d="M80.1553 59.0259C81.1903 59.0259 82.0293 58.1869 82.0293 57.1519C82.0293 56.1169 81.1903 55.2778 80.1553 55.2778C79.1203 55.2778 78.2812 56.1169 78.2812 57.1519C78.2812 58.1869 79.1203 59.0259 80.1553 59.0259Z" fill="#F39200"/>
<path d="M80.1553 68.1336C81.1903 68.1336 82.0293 67.2945 82.0293 66.2595C82.0293 65.2245 81.1903 64.3855 80.1553 64.3855C79.1203 64.3855 78.2812 65.2245 78.2812 66.2595C78.2812 67.2945 79.1203 68.1336 80.1553 68.1336Z" fill="#F39200"/>
<path d="M64.2908 75.8696C64.5721 75.8696 64.8003 75.6415 64.8003 75.3601C64.8003 75.0787 64.5721 74.8506 64.2908 74.8506C64.0094 74.8506 63.7812 75.0787 63.7812 75.3601C63.7812 75.6415 64.0094 75.8696 64.2908 75.8696Z" fill="#F39200"/>
<path d="M64.2908 66.7685C64.5721 66.7685 64.8003 66.5404 64.8003 66.259C64.8003 65.9776 64.5721 65.7495 64.2908 65.7495C64.0094 65.7495 63.7812 65.9776 63.7812 66.259C63.7812 66.5404 64.0094 66.7685 64.2908 66.7685Z" fill="#F39200"/>
<path d="M56.3551 62.3648C56.7206 62.3648 57.0169 62.0685 57.0169 61.703C57.0169 61.3375 56.7206 61.0413 56.3551 61.0413C55.9896 61.0413 55.6934 61.3375 55.6934 61.703C55.6934 62.0685 55.9896 62.3648 56.3551 62.3648Z" fill="#F39200"/>
<path d="M56.355 71.77C56.8887 71.77 57.3213 71.3374 57.3213 70.8037C57.3213 70.27 56.8887 69.8374 56.355 69.8374C55.8213 69.8374 55.3887 70.27 55.3887 70.8037C55.3887 71.3374 55.8213 71.77 56.355 71.77Z" fill="#F39200"/>
<path d="M72.2202 71.77C72.7539 71.77 73.1865 71.3374 73.1865 70.8037C73.1865 70.27 72.7539 69.8374 72.2202 69.8374C71.6865 69.8374 71.2539 70.27 71.2539 70.8037C71.2539 71.3374 71.6865 71.77 72.2202 71.77Z" fill="#F39200"/>
<path d="M56.3551 53.2637C56.7206 53.2637 57.0169 52.9674 57.0169 52.602C57.0169 52.2365 56.7206 51.9402 56.3551 51.9402C55.9896 51.9402 55.6934 52.2365 55.6934 52.602C55.6934 52.9674 55.9896 53.2637 56.3551 53.2637Z" fill="#F39200"/>
<path d="M56.3551 44.1636C56.7206 44.1636 57.0169 43.8673 57.0169 43.5019C57.0169 43.1364 56.7206 42.8401 56.3551 42.8401C55.9896 42.8401 55.6934 43.1364 55.6934 43.5019C55.6934 43.8673 55.9896 44.1636 56.3551 44.1636Z" fill="#F39200"/>
<path d="M48.4196 39.5657C48.7851 39.5657 49.0814 39.2694 49.0814 38.904C49.0814 38.5385 48.7851 38.2422 48.4196 38.2422C48.0541 38.2422 47.7578 38.5385 47.7578 38.904C47.7578 39.2694 48.0541 39.5657 48.4196 39.5657Z" fill="#F39200"/>
<path d="M80.1559 30.5064C80.5214 30.5064 80.8177 30.2101 80.8177 29.8446C80.8177 29.4791 80.5214 29.1829 80.1559 29.1829C79.7904 29.1829 79.4941 29.4791 79.4941 29.8446C79.4941 30.2101 79.7904 30.5064 80.1559 30.5064Z" fill="#F39200"/>
<path d="M80.1559 39.6065C80.5214 39.6065 80.8177 39.3102 80.8177 38.9447C80.8177 38.5792 80.5214 38.283 80.1559 38.283C79.7904 38.283 79.4941 38.5792 79.4941 38.9447C79.4941 39.3102 79.7904 39.6065 80.1559 39.6065Z" fill="#F39200"/>
<path d="M48.4196 30.418C48.7851 30.418 49.0814 30.1217 49.0814 29.7563C49.0814 29.3908 48.7851 29.0945 48.4196 29.0945C48.0541 29.0945 47.7578 29.3908 47.7578 29.7563C47.7578 30.1217 48.0541 30.418 48.4196 30.418Z" fill="#F39200"/>
<path d="M72.2204 44.1636C72.5859 44.1636 72.8821 43.8673 72.8821 43.5019C72.8821 43.1364 72.5859 42.8401 72.2204 42.8401C71.8549 42.8401 71.5586 43.1364 71.5586 43.5019C71.5586 43.8673 71.8549 44.1636 72.2204 44.1636Z" fill="#F39200"/>
<path d="M72.2204 53.2637C72.5859 53.2637 72.8821 52.9674 72.8821 52.602C72.8821 52.2365 72.5859 51.9402 72.2204 51.9402C71.8549 51.9402 71.5586 52.2365 71.5586 52.602C71.5586 52.9674 71.8549 53.2637 72.2204 53.2637Z" fill="#F39200"/>
<path d="M72.2204 62.3648C72.5859 62.3648 72.8821 62.0685 72.8821 61.703C72.8821 61.3375 72.5859 61.0413 72.2204 61.0413C71.8549 61.0413 71.5586 61.3375 71.5586 61.703C71.5586 62.0685 71.8549 62.3648 72.2204 62.3648Z" fill="#F39200"/>
<path d="M64.2908 57.6618C64.5721 57.6618 64.8003 57.4337 64.8003 57.1523C64.8003 56.8709 64.5721 56.6428 64.2908 56.6428C64.0094 56.6428 63.7812 56.8709 63.7812 57.1523C63.7812 57.4337 64.0094 57.6618 64.2908 57.6618Z" fill="#F39200"/>
<path d="M64.2908 48.5608C64.5721 48.5608 64.8003 48.3326 64.8003 48.0513C64.8003 47.7699 64.5721 47.5417 64.2908 47.5417C64.0094 47.5417 63.7812 47.7699 63.7812 48.0513C63.7812 48.3326 64.0094 48.5608 64.2908 48.5608Z" fill="#F39200"/>
<path d="M64.2908 39.4548C64.5721 39.4548 64.8003 39.2267 64.8003 38.9453C64.8003 38.6639 64.5721 38.4358 64.2908 38.4358C64.0094 38.4358 63.7812 38.6639 63.7812 38.9453C63.7812 39.2267 64.0094 39.4548 64.2908 39.4548Z" fill="#F39200"/>
<path d="M56.3552 34.9043C56.6366 34.9043 56.8647 34.6762 56.8647 34.3948C56.8647 34.1134 56.6366 33.8853 56.3552 33.8853C56.0738 33.8853 55.8457 34.1134 55.8457 34.3948C55.8457 34.6762 56.0738 34.9043 56.3552 34.9043Z" fill="#F39200"/>
<path d="M72.2204 34.9043C72.5018 34.9043 72.73 34.6762 72.73 34.3948C72.73 34.1134 72.5018 33.8853 72.2204 33.8853C71.9391 33.8853 71.7109 34.1134 71.7109 34.3948C71.7109 34.6762 71.9391 34.9043 72.2204 34.9043Z" fill="#F39200"/>
<path d="M64.2908 30.3537C64.5721 30.3537 64.8003 30.1256 64.8003 29.8442C64.8003 29.5628 64.5721 29.3347 64.2908 29.3347C64.0094 29.3347 63.7812 29.5628 63.7812 29.8442C63.7812 30.1256 64.0094 30.3537 64.2908 30.3537Z" fill="#F39200"/>
<path d="M48.4209 68.1336C49.4559 68.1336 50.295 67.2945 50.295 66.2595C50.295 65.2245 49.4559 64.3855 48.4209 64.3855C47.3859 64.3855 46.5469 65.2245 46.5469 66.2595C46.5469 67.2945 47.3859 68.1336 48.4209 68.1336Z" fill="#F39200"/>
<path d="M48.4209 59.0259C49.4559 59.0259 50.295 58.1869 50.295 57.1519C50.295 56.1169 49.4559 55.2778 48.4209 55.2778C47.3859 55.2778 46.5469 56.1169 46.5469 57.1519C46.5469 58.1869 47.3859 59.0259 48.4209 59.0259Z" fill="#F39200"/>
<path d="M96.0264 31.7181C97.0614 31.7181 97.9004 30.879 97.9004 29.844C97.9004 28.809 97.0614 27.97 96.0264 27.97C94.9914 27.97 94.1523 28.809 94.1523 29.844C94.1523 30.879 94.9914 31.7181 96.0264 31.7181Z" fill="#F39200"/>
<path d="M96.0264 40.7781C97.0614 40.7781 97.9004 39.9391 97.9004 38.9041C97.9004 37.8691 97.0614 37.03 96.0264 37.03C94.9914 37.03 94.1523 37.8691 94.1523 38.9041C94.1523 39.9391 94.9914 40.7781 96.0264 40.7781Z" fill="#F39200"/>
<path d="M32.5498 40.7781C33.5848 40.7781 34.4239 39.9391 34.4239 38.9041C34.4239 37.8691 33.5848 37.03 32.5498 37.03C31.5148 37.03 30.6758 37.8691 30.6758 38.9041C30.6758 39.9391 31.5148 40.7781 32.5498 40.7781Z" fill="#F39200"/>
<path d="M40.485 82.4466C41.8855 82.4466 43.0209 81.3113 43.0209 79.9108C43.0209 78.5103 41.8855 77.375 40.485 77.375C39.0845 77.375 37.9492 78.5103 37.9492 79.9108C37.9492 81.3113 39.0845 82.4466 40.485 82.4466Z" fill="#F39200"/>
<path d="M40.485 73.34C41.8855 73.34 43.0209 72.2046 43.0209 70.8041C43.0209 69.4036 41.8855 68.2683 40.485 68.2683C39.0845 68.2683 37.9492 69.4036 37.9492 70.8041C37.9492 72.2046 39.0845 73.34 40.485 73.34Z" fill="#F39200"/>
<path d="M48.4206 77.8954C49.8211 77.8954 50.9564 76.76 50.9564 75.3595C50.9564 73.9591 49.8211 72.8237 48.4206 72.8237C47.0201 72.8237 45.8848 73.9591 45.8848 75.3595C45.8848 76.76 47.0201 77.8954 48.4206 77.8954Z" fill="#F39200"/>
<path d="M40.485 64.2389C41.8855 64.2389 43.0209 63.1035 43.0209 61.7031C43.0209 60.3026 41.8855 59.1672 40.485 59.1672C39.0845 59.1672 37.9492 60.3026 37.9492 61.7031C37.9492 63.1035 39.0845 64.2389 40.485 64.2389Z" fill="#F39200"/>
<path d="M40.485 55.1378C41.8855 55.1378 43.0209 54.0025 43.0209 52.602C43.0209 51.2015 41.8855 50.0662 40.485 50.0662C39.0845 50.0662 37.9492 51.2015 37.9492 52.602C37.9492 54.0025 39.0845 55.1378 40.485 55.1378Z" fill="#F39200"/>
<path d="M88.0905 82.441C89.491 82.441 90.6263 81.3057 90.6263 79.9052C90.6263 78.5047 89.491 77.3694 88.0905 77.3694C86.69 77.3694 85.5547 78.5047 85.5547 79.9052C85.5547 81.3057 86.69 82.441 88.0905 82.441Z" fill="#F39200"/>
<path d="M88.0905 73.34C89.491 73.34 90.6263 72.2046 90.6263 70.8041C90.6263 69.4036 89.491 68.2683 88.0905 68.2683C86.69 68.2683 85.5547 69.4036 85.5547 70.8041C85.5547 72.2046 86.69 73.34 88.0905 73.34Z" fill="#F39200"/>
<path d="M80.1569 77.8954C81.5574 77.8954 82.6927 76.76 82.6927 75.3595C82.6927 73.9591 81.5574 72.8237 80.1569 72.8237C78.7564 72.8237 77.6211 73.9591 77.6211 75.3595C77.6211 76.76 78.7564 77.8954 80.1569 77.8954Z" fill="#F39200"/>
<path d="M88.0905 64.2389C89.491 64.2389 90.6263 63.1035 90.6263 61.7031C90.6263 60.3026 89.491 59.1672 88.0905 59.1672C86.69 59.1672 85.5547 60.3026 85.5547 61.7031C85.5547 63.1035 86.69 64.2389 88.0905 64.2389Z" fill="#F39200"/>
<path d="M88.0905 55.1378C89.491 55.1378 90.6263 54.0025 90.6263 52.602C90.6263 51.2015 89.491 50.0662 88.0905 50.0662C86.69 50.0662 85.5547 51.2015 85.5547 52.602C85.5547 54.0025 86.69 55.1378 88.0905 55.1378Z" fill="#F39200"/>
<path d="M48.4206 86.9964C49.8211 86.9964 50.9564 85.8611 50.9564 84.4606C50.9564 83.0601 49.8211 81.9248 48.4206 81.9248C47.0201 81.9248 45.8848 83.0601 45.8848 84.4606C45.8848 85.8611 47.0201 86.9964 48.4206 86.9964Z" fill="#F39200"/>
<path d="M56.3561 91.5467C57.7566 91.5467 58.8919 90.4114 58.8919 89.0109C58.8919 87.6104 57.7566 86.4751 56.3561 86.4751C54.9556 86.4751 53.8203 87.6104 53.8203 89.0109C53.8203 90.4114 54.9556 91.5467 56.3561 91.5467Z" fill="#F39200"/>
<path d="M64.2917 96.0973C65.6922 96.0973 66.8275 94.9619 66.8275 93.5615C66.8275 92.161 65.6922 91.0256 64.2917 91.0256C62.8912 91.0256 61.7559 92.161 61.7559 93.5615C61.7559 94.9619 62.8912 96.0973 64.2917 96.0973Z" fill="#F39200"/>
<path d="M64.2917 86.9964C65.6922 86.9964 66.8275 85.8611 66.8275 84.4606C66.8275 83.0601 65.6922 81.9248 64.2917 81.9248C62.8912 81.9248 61.7559 83.0601 61.7559 84.4606C61.7559 85.8611 62.8912 86.9964 64.2917 86.9964Z" fill="#F39200"/>
<path d="M0 115.225V118.171H6.14921V133.954H9.59277V118.171H15.742V115.225H0Z" fill="#F39200"/>
<path d="M32.6722 119.131C31.8933 118.487 30.7572 118.171 29.2521 118.171H25.2229V125.638H29.2521C30.7513 125.638 31.8933 125.31 32.6722 124.66C33.4511 124.009 33.8376 123.084 33.8376 121.889C33.8435 120.695 33.4511 119.775 32.6722 119.131ZM33.9196 133.954L30.1305 128.472C29.9724 128.49 29.7323 128.501 29.416 128.501H25.2287V133.959H21.7852V115.231H29.416C31.0207 115.231 32.4262 115.5 33.6151 116.033C34.8098 116.566 35.7234 117.333 36.3559 118.335C36.9942 119.336 37.3105 120.519 37.3105 121.895C37.3105 123.301 36.9708 124.519 36.2914 125.532C35.6121 126.551 34.6341 127.307 33.3632 127.804L37.6326 133.959H33.9196V133.954Z" fill="#F39200"/>
<path d="M56.3448 130.328C57.3345 129.766 58.1134 128.981 58.6756 127.974C59.2437 126.967 59.5248 125.836 59.5248 124.589C59.5248 123.341 59.2437 122.211 58.6756 121.204C58.1076 120.197 57.3345 119.412 56.3448 118.85C55.355 118.287 54.2423 118.006 53.0066 118.006C51.7709 118.006 50.6582 118.287 49.6685 118.85C48.6788 119.412 47.8999 120.197 47.3376 121.204C46.7754 122.211 46.4885 123.341 46.4885 124.589C46.4885 125.836 46.7696 126.967 47.3376 127.974C47.9057 128.981 48.6788 129.766 49.6685 130.328C50.6582 130.89 51.7709 131.171 53.0066 131.171C54.2423 131.171 55.355 130.89 56.3448 130.328ZM47.8881 132.975C46.3655 132.144 45.1766 130.996 44.3099 129.526C43.4431 128.056 43.0098 126.41 43.0098 124.589C43.0098 122.768 43.4431 121.128 44.3099 119.652C45.1766 118.182 46.3655 117.028 47.8881 116.202C49.4049 115.371 51.115 114.961 53.0066 114.961C54.8982 114.961 56.6025 115.377 58.1193 116.202C59.6419 117.034 60.8308 118.176 61.6975 119.64C62.5643 121.104 62.9976 122.75 62.9976 124.589C62.9976 126.428 62.5643 128.079 61.6975 129.538C60.8308 131.002 59.6361 132.144 58.1193 132.975C56.6025 133.807 54.8924 134.217 53.0066 134.217C51.115 134.223 49.4049 133.807 47.8881 132.975Z" fill="#F39200"/>
<path d="M82.2182 115.225L73.0471 124.829V115.225H69.6035V133.954H73.0471V129.163L75.9928 126.118L82.5403 133.954H86.5636L78.2944 123.599L86.0893 115.225H82.2182Z" fill="#F39200"/>
<path d="M102.892 130.328C103.881 129.766 104.66 128.981 105.223 127.974C105.791 126.967 106.072 125.836 106.072 124.589C106.072 123.341 105.791 122.211 105.223 121.204C104.654 120.197 103.881 119.412 102.892 118.85C101.902 118.287 100.789 118.006 99.5535 118.006C98.3178 118.006 97.2051 118.287 96.2154 118.85C95.2256 119.412 94.4467 120.197 93.8845 121.204C93.3165 122.211 93.0353 123.341 93.0353 124.589C93.0353 125.836 93.3165 126.967 93.8845 127.974C94.4526 128.981 95.2256 129.766 96.2154 130.328C97.2051 130.89 98.3178 131.171 99.5535 131.171C100.789 131.171 101.902 130.89 102.892 130.328ZM94.4409 132.975C92.9182 132.144 91.7294 130.996 90.8626 129.526C89.9959 128.056 89.5625 126.41 89.5625 124.589C89.5625 122.768 89.9959 121.128 90.8626 119.652C91.7294 118.182 92.9241 117.028 94.4409 116.202C95.9577 115.371 97.6678 114.961 99.5594 114.961C101.451 114.961 103.155 115.377 104.672 116.202C106.189 117.028 107.384 118.176 108.25 119.64C109.117 121.104 109.55 122.75 109.55 124.589C109.55 126.428 109.117 128.079 108.25 129.538C107.384 131.002 106.189 132.144 104.672 132.975C103.155 133.807 101.445 134.217 99.5594 134.217C97.6619 134.223 95.9577 133.807 94.4409 132.975Z" fill="#F39200"/>
<path d="M112.59 115.225V118.171H118.739V133.954H122.188V118.171H128.338V115.225H112.59Z" fill="#F39200"/>
<path d="M133.509 110.985H131.863V110.382H135.84V110.985H134.188V115.237H133.509V110.985Z" fill="#F39200"/>
<path d="M141.425 110.382L139.446 113.796L137.437 110.382H136.875V115.237H137.537V111.723L139.276 114.645H139.592L141.332 111.7L141.338 115.237H141.999L141.988 110.382H141.425Z" fill="#F39200"/>
</svg>
